<svg width="54" height="25" viewBox="0 0 54 25" fill="none" xmlns="http://www.w3.org/2000/svg">
<rect opacity="0.35" x="28.37" y="10.1286" width="11.7681" height="5.87901" rx="1.21417" stroke="black" stroke-width="0.560386"/>
<path opacity="0.4" d="M40.9785 11.9318V14.2046C41.4295 14.0121 41.7227 13.5643 41.7227 13.0682C41.7227 12.5721 41.4295 12.1243 40.9785 11.9318Z" fill="black"/>
<rect x="29.2109" y="10.9849" width="10.087" height="4.16667" rx="0.747182" fill="black"/>
<path fill-rule="evenodd" clip-rule="evenodd" d="M20.9918 11.145C22.2385 11.145 23.4376 11.6303 24.3411 12.5006C24.4092 12.5677 24.5179 12.5669 24.5849 12.4987L25.2353 11.8337C25.2692 11.7991 25.2882 11.7522 25.2879 11.7034C25.2876 11.6546 25.2681 11.608 25.2338 11.5738C22.8623 9.27138 19.121 9.27138 16.7495 11.5738C16.7151 11.608 16.6956 11.6546 16.6953 11.7034C16.695 11.7522 16.7139 11.7991 16.7478 11.8337L17.3984 12.4987C17.4653 12.567 17.5742 12.5678 17.6422 12.5006C18.5458 11.6303 19.745 11.145 20.9918 11.145ZM20.9912 13.3084C21.6762 13.3083 22.3368 13.5663 22.8445 14.032C22.9132 14.0981 23.0214 14.0967 23.0883 14.0288L23.738 13.3638C23.7722 13.329 23.7911 13.2816 23.7907 13.2325C23.7902 13.1833 23.7702 13.1364 23.7353 13.1022C22.1891 11.6452 19.7946 11.6452 18.2485 13.1022C18.2135 13.1364 18.1936 13.1833 18.1931 13.2325C18.1927 13.2817 18.2117 13.329 18.246 13.3638L18.8955 14.0288C18.9624 14.0967 19.0706 14.0981 19.1393 14.032C19.6467 13.5666 20.3067 13.3087 20.9912 13.3084ZM22.2943 14.7639C22.2953 14.8132 22.2761 14.8608 22.2414 14.8953L21.1176 16.0442C21.0847 16.0779 21.0398 16.0969 20.9929 16.0969C20.9461 16.0969 20.9011 16.0779 20.8682 16.0442L19.7443 14.8953C19.7095 14.8607 19.6904 14.8132 19.6915 14.7639C19.6925 14.7146 19.7136 14.6679 19.7497 14.6348C20.4674 14.0199 21.5185 14.0199 22.2361 14.6348C22.2722 14.6679 22.2933 14.7146 22.2943 14.7639Z" fill="black"/>
<path fill-rule="evenodd" clip-rule="evenodd" d="M13.3334 10.038H12.773C12.4635 10.038 12.2126 10.2923 12.2126 10.6061V15.5304C12.2126 15.8442 12.4635 16.0986 12.773 16.0986H13.3334C13.6429 16.0986 13.8938 15.8442 13.8938 15.5304V10.6061C13.8938 10.2923 13.6429 10.038 13.3334 10.038ZM10.1575 11.3636H10.7179C11.0274 11.3636 11.2783 11.618 11.2783 11.9318V15.5303C11.2783 15.8441 11.0274 16.0985 10.7179 16.0985H10.1575C9.84803 16.0985 9.59714 15.8441 9.59714 15.5303V11.9318C9.59714 11.618 9.84803 11.3636 10.1575 11.3636ZM8.10343 12.6894H7.54304C7.23355 12.6894 6.98265 12.9438 6.98265 13.2576V15.5303C6.98265 15.8441 7.23355 16.0985 7.54304 16.0985H8.10343C8.41292 16.0985 8.66382 15.8441 8.66382 15.5303V13.2576C8.66382 12.9438 8.41292 12.6894 8.10343 12.6894ZM5.48797 13.8258H4.92758C4.61808 13.8258 4.36719 14.0802 4.36719 14.394V15.5303C4.36719 15.8441 4.61808 16.0985 4.92758 16.0985H5.48797C5.79746 16.0985 6.04836 15.8441 6.04836 15.5303V14.394C6.04836 14.0802 5.79746 13.8258 5.48797 13.8258Z" fill="black"/>
</svg>
